<svg width="32" height="32" viewBox="0 0 32 32" fill="none" xmlns="http://www.w3.org/2000/svg">
<path d="M11.9993 25.3336C5.33268 27.3336 5.33268 22.0002 2.66602 21.3336M21.3327 29.3336V24.1736C21.3827 23.5378 21.2968 22.8986 21.0807 22.2986C20.8646 21.6986 20.5233 21.1515 20.0794 20.6936C24.266 20.2269 28.666 18.6402 28.666 11.3602C28.6657 9.49868 27.9496 7.70851 26.666 6.36024C27.2738 4.73158 27.2308 2.93137 26.546 1.33358C26.546 1.33358 24.9727 0.866909 21.3327 3.30691C18.2767 2.47867 15.0553 2.47867 11.9993 3.30691C8.35935 0.866909 6.78602 1.33358 6.78602 1.33358C6.10118 2.93137 6.05821 4.73158 6.66602 6.36024C5.37285 7.71851 4.65605 9.52486 4.66602 11.4002C4.66602 18.6269 9.06602 20.2136 13.2527 20.7336C12.814 21.1869 12.4757 21.7274 12.2598 22.3201C12.0438 22.9128 11.9551 23.5443 11.9993 24.1736V29.3336" stroke="#212121" stroke-width="2" stroke-linecap="round" stroke-linejoin="round"/>
</svg>
