<svg width="231" height="36" viewBox="0 0 231 36" fill="none" xmlns="http://www.w3.org/2000/svg">
<path d="M35.3699 29.9046V1.97168H31.0898V29.9046H33.0653H35.3699Z" fill="#5EAA6A"/>
<path d="M28.1503 12.2128H5.39844V16.6055H28.1503V14.5781V12.2128Z" fill="#5EAA6A"/>
<path d="M35.3677 31.0959V30.4597C35.3677 27.9093 33.3002 25.8418 30.7498 25.8418C28.1994 25.8418 26.1318 27.9353 26.1318 30.4857L26.1119 30.8191C25.9484 33.5511 28.1765 35.8285 30.9114 35.7246C33.3995 35.6301 35.3677 33.5857 35.3677 31.0959Z" fill="#5EAA6A"/>
<path d="M28.1503 3.75478L5.39844 3.75478V8.14746L28.1503 8.14746V6.12007V3.75478Z" fill="#5EAA6A"/>
<path d="M0 5.9045L7.94061 1.31999V10.489L0 5.9045Z" fill="#5EAA6A"/>
<path d="M23.8741 20.7808H5.40234V25.2861H23.8741V23.2068V20.7808Z" fill="#5EAA6A"/>
<path d="M29.2832 22.9168L21.3426 27.5013V18.3323L29.2832 22.9168Z" fill="#5EAA6A"/>
<path d="M59.4936 15.573C59.4936 16.5291 59.2742 17.4069 58.8353 18.2063C58.3964 18.99 57.7224 19.6249 56.8133 20.1108C55.9042 20.5967 54.7756 20.8396 53.4276 20.8396H50.9353V26.7646H46.9148V10.2593H53.4276C54.7442 10.2593 55.8571 10.4866 56.7663 10.9411C57.6754 11.3957 58.3572 12.0227 58.8118 12.8221C59.2664 13.6215 59.4936 14.5385 59.4936 15.573ZM53.1219 17.642C53.89 17.642 54.4621 17.4618 54.8383 17.1013C55.2145 16.7407 55.4026 16.2313 55.4026 15.573C55.4026 14.9146 55.2145 14.4052 54.8383 14.0447C54.4621 13.6842 53.89 13.5039 53.1219 13.5039H50.9353V17.642H53.1219ZM66.3127 23.6611H71.5793V26.7646H62.2921V10.2593H66.3127V23.6611ZM84.4771 23.8492H78.317L77.3295 26.7646H73.1208L79.0928 10.2593H83.7482L89.7202 26.7646H85.4646L84.4771 23.8492ZM83.4426 20.7456L81.397 14.703L79.375 20.7456H83.4426ZM106.397 10.2593L100.684 21.3099V26.7646H96.6634V21.3099L90.95 10.2593H95.5113L98.709 17.1718L101.883 10.2593H106.397ZM112.743 23.6611H118.01V26.7646H108.723V10.2593H112.743V23.6611ZM124.653 10.2593V26.7646H120.633V10.2593H124.653ZM134.244 26.9292C133.038 26.9292 131.956 26.7333 131 26.3414C130.044 25.9496 129.276 25.3696 128.696 24.6016C128.131 23.8335 127.834 22.9087 127.802 21.8271H132.081C132.144 22.4385 132.356 22.9087 132.716 23.2379C133.077 23.5514 133.547 23.7081 134.127 23.7081C134.723 23.7081 135.193 23.5749 135.538 23.3084C135.882 23.0263 136.055 22.6422 136.055 22.1563C136.055 21.7488 135.914 21.4118 135.632 21.1453C135.365 20.8788 135.028 20.6594 134.621 20.487C134.229 20.3145 133.665 20.1186 132.928 19.8992C131.862 19.57 130.992 19.2408 130.318 18.9117C129.644 18.5825 129.064 18.0966 128.578 17.4539C128.092 16.8113 127.849 15.9727 127.849 14.9382C127.849 13.402 128.406 12.2029 129.519 11.3408C130.631 10.4631 132.081 10.0242 133.868 10.0242C135.687 10.0242 137.152 10.4631 138.265 11.3408C139.378 12.2029 139.974 13.4099 140.052 14.9617H135.702C135.671 14.4287 135.475 14.0134 135.114 13.7155C134.754 13.402 134.291 13.2453 133.727 13.2453C133.241 13.2453 132.849 13.3785 132.552 13.645C132.254 13.8958 132.105 14.2641 132.105 14.7501C132.105 15.283 132.356 15.6984 132.857 15.9962C133.359 16.294 134.143 16.6153 135.208 16.9602C136.274 17.3207 137.136 17.6655 137.795 17.9947C138.469 18.3239 139.049 18.8019 139.535 19.4289C140.021 20.0559 140.264 20.8632 140.264 21.8507C140.264 22.7911 140.021 23.6454 139.535 24.4135C139.064 25.1815 138.375 25.7928 137.466 26.2474C136.556 26.7019 135.483 26.9292 134.244 26.9292ZM155.317 10.2593V13.4804H150.943V26.7646H146.923V13.4804H142.55V10.2593H155.317ZM164.012 26.9292C162.805 26.9292 161.723 26.7333 160.767 26.3414C159.811 25.9496 159.043 25.3696 158.463 24.6016C157.899 23.8335 157.601 22.9087 157.57 21.8271H161.849C161.911 22.4385 162.123 22.9087 162.484 23.2379C162.844 23.5514 163.314 23.7081 163.894 23.7081C164.49 23.7081 164.96 23.5749 165.305 23.3084C165.65 23.0263 165.822 22.6422 165.822 22.1563C165.822 21.7488 165.681 21.4118 165.399 21.1453C165.133 20.8788 164.796 20.6594 164.388 20.487C163.996 20.3145 163.432 20.1186 162.695 19.8992C161.629 19.57 160.759 19.2408 160.085 18.9117C159.411 18.5825 158.831 18.0966 158.345 17.4539C157.86 16.8113 157.617 15.9727 157.617 14.9382C157.617 13.402 158.173 12.2029 159.286 11.3408C160.399 10.4631 161.849 10.0242 163.636 10.0242C165.454 10.0242 166.919 10.4631 168.032 11.3408C169.145 12.2029 169.741 13.4099 169.819 14.9617H165.47C165.438 14.4287 165.242 14.0134 164.882 13.7155C164.521 13.402 164.059 13.2453 163.495 13.2453C163.009 13.2453 162.617 13.3785 162.319 13.645C162.021 13.8958 161.872 14.2641 161.872 14.7501C161.872 15.283 162.123 15.6984 162.625 15.9962C163.126 16.294 163.91 16.6153 164.976 16.9602C166.042 17.3207 166.904 17.6655 167.562 17.9947C168.236 18.3239 168.816 18.8019 169.302 19.4289C169.788 20.0559 170.031 20.8632 170.031 21.8507C170.031 22.7911 169.788 23.6454 169.302 24.4135C168.832 25.1815 168.142 25.7928 167.233 26.2474C166.324 26.7019 165.25 26.9292 164.012 26.9292ZM195.923 10.2593L191.62 26.7646H186.753L184.12 15.9021L181.393 26.7646H176.526L172.341 10.2593H176.643L179.018 22.2739L181.957 10.2593H186.377L189.199 22.2739L191.597 10.2593H195.923ZM208.919 23.8492H202.759L201.772 26.7646H197.563L203.535 10.2593H208.191L214.163 26.7646H209.907L208.919 23.8492ZM207.885 20.7456L205.839 14.703L203.817 20.7456H207.885ZM229.264 15.573C229.264 16.5291 229.045 17.4069 228.606 18.2063C228.167 18.99 227.493 19.6249 226.584 20.1108C225.675 20.5967 224.546 20.8396 223.198 20.8396H220.706V26.7646H216.686V10.2593H223.198C224.515 10.2593 225.628 10.4866 226.537 10.9411C227.446 11.3957 228.128 12.0227 228.583 12.8221C229.037 13.6215 229.264 14.5385 229.264 15.573ZM222.893 17.642C223.661 17.642 224.233 17.4618 224.609 17.1013C224.985 16.7407 225.173 16.2313 225.173 15.573C225.173 14.9146 224.985 14.4052 224.609 14.0447C224.233 13.6842 223.661 13.5039 222.893 13.5039H220.706V17.642H222.893Z" fill="#00242B"/>
</svg>
